<svg xmlns="http://www.w3.org/2000/svg" width="24" height="24" fill="#E4405F" viewBox="0 0 24 24"><path d="M12 2.163c3.204 0 3.584.012 4.85.07 1.17.056 1.97.24 2.427.403a4.92 4.92 0 011.75 1.145 4.92 4.92 0 011.145 1.75c.163.457.347 1.257.403 2.427.058 1.266.07 1.646.07 4.85s-.012 3.584-.07 4.85c-.056 1.17-.24 1.97-.403 2.427a4.92 4.92 0 01-1.145 1.75 4.92 4.92 0 01-1.75 1.145c-.457.163-1.257.347-2.427.403-1.266.058-1.646.07-4.85.07s-3.584-.012-4.85-.07c-1.17-.056-1.97-.24-2.427-.403a4.92 4.92 0 01-1.75-1.145 4.92 4.92 0 01-1.145-1.75c-.163-.457-.347-1.257-.403-2.427C2.175 15.747 2.163 15.367 2.163 12s.012-3.584.07-4.85c.056-1.17.24-1.97.403-2.427a4.92 4.92 0 011.145-1.75 4.92 4.92 0 011.75-1.145c.457-.163 1.257-.347 2.427-.403C8.416 2.175 8.796 2.163 12 2.163M12 0C8.741 0 8.332.013 7.052.072 5.773.131 4.76.314 3.95.635a7.067 7.067 0 00-2.56 1.653A7.067 7.067 0 00.635 4.95c-.321.81-.504 1.823-.563 3.102C.013 8.332 0 8.741 0 12c0 3.259.013 3.668.072 4.948.059 1.279.242 2.292.563 3.102a7.067 7.067 0 001.653 2.56 7.067 7.067 0 002.56 1.653c.81.321 1.823.504 3.102.563C8.332 23.987 8.741 24 12 24s3.668-.013 4.948-.072c1.279-.059 2.292-.242 3.102-.563a7.067 7.067 0 002.56-1.653 7.067 7.067 0 001.653-2.56c.321-.81.504-1.823.563-3.102.059-1.279.072-1.688.072-4.948s-.013-3.668-.072-4.948c-.059-1.279-.242-2.292-.563-3.102a7.067 7.067 0 00-1.653-2.56A7.067 7.067 0 0020.05.635c-.81-.321-1.823-.504-3.102-.563C15.668.013 15.259 0 12 0z"/><path d="M12 5.838a6.162 6.162 0 100 12.324 6.162 6.162 0 000-12.324zm0 10.162a3.999 3.999 0 110-7.998 3.999 3.999 0 010 7.998zM18.406 4.594a1.44 1.44 0 11-2.881 0 1.44 1.44 0 012.881 0z"/></svg>