<svg xmlns="http://www.w3.org/2000/svg" width="24" height="24" fill="#1DA1F2" viewBox="0 0 24 24"><path d="M24 4.557a9.83 9.83 0 01-2.828.775 4.932 4.932 0 002.165-2.724c-.951.564-2.005.974-3.127 1.195a4.918 4.918 0 00-8.384 4.482C7.691 7.575 4.066 5.532 1.64 2.515a4.822 4.822 0 00-.666 2.475c0 1.708.87 3.216 2.188 4.099a4.904 4.904 0 01-2.229-.616v.06a4.922 4.922 0 003.946 4.827 4.902 4.902 0 01-2.224.084 4.933 4.933 0 004.604 3.417 9.867 9.867 0 01-6.102 2.104c-.397 0-.788-.023-1.175-.068a13.945 13.945 0 007.557 2.212c9.054 0 14-7.496 14-13.986 0-.213-.005-.425-.014-.636A9.936 9.936 0 0024 4.557z"/></svg>